# xmcd
#
# Track frame offsets: 
#        150
#        13959
#        28332
#        42030
#        55284
#        69780
#        81648
#        94279
#        108517
#        121051
#        134575
#        149569
#        162721
#
# Disc length: 2398 seconds
#
# Revision: 1
# Processed by: cddbd v1.5.2PL0 Copyright (c) Steve Scherf et al.
# Submitted via: ExactAudioCopy v0.95b4
#
DISCID=c3095c0d
DTITLE=Thelonious Monk - Coleção Folha Clássicos do Jazz Vol 8
DYEAR=2007
DGENRE=Jazz
TTITLE0=Thelonious
TTITLE1=Ruby My Dear
TTITLE2=Well You Needn't
TTITLE3=In Walked Bud
TTITLE4=Round Midnight
TTITLE5=Evidence
TTITLE6=Misterioso
TTITLE7=Epistrophy
TTITLE8=I Mean You
TTITLE9=Criss Cross
TTITLE10=Ask Me Now
TTITLE11=Straight No Chaser
TTITLE12=Let's Cool One
EXTD=
EXTT0=
EXTT1=
EXTT2=
EXTT3=
EXTT4=
EXTT5=
EXTT6=
EXTT7=
EXTT8=
EXTT9=
EXTT10=
EXTT11=
EXTT12=
PLAYORDER=
